<svg xmlns="http://www.w3.org/2000/svg" viewBox="0 0 130.86 122.35"><defs><style>.cls-1{fill:#23272f;}</style></defs><g id="Capa_2" data-name="Capa 2"><g id="Capa_1-2" data-name="Capa 1"><g id="Capa_2-2" data-name="Capa 2"><g id="Capa_1-2-2" data-name="Capa 1-2"><path class="cls-1" d="M52.8,21.22l3-16.47A6.33,6.33,0,0,1,62.27,0h61.59s7.7.59,6.94,7.11-4.73,25.06-4.73,25.06-2.56,5.34-5.73,5.53-101.67,0-101.67,0a1,1,0,0,0-.79.15,1.21,1.21,0,0,0-.24.35c-1.29,2.21-2.19,4.4-1.42,5.25a1.52,1.52,0,0,0,1.07.38h86.87A7.38,7.38,0,0,1,109,45.41a7.61,7.61,0,0,1,2.67,5.73Q110,61.81,108.31,72.46a9.86,9.86,0,0,1-4.5,6.26,7.44,7.44,0,0,1-1.64.64H45.68a2.82,2.82,0,0,0-.79.26,3.14,3.14,0,0,0-1.38,2.31q-1.08,6.22-2.17,12.43a1.85,1.85,0,0,0,.16,1.49,1.8,1.8,0,0,0,.83.69h14l2.36-9.68A1.5,1.5,0,0,1,60.64,86a2.07,2.07,0,0,1,.45.27L82,100.88a1.42,1.42,0,0,1,.48,1,1.34,1.34,0,0,1-.69,1.14L53.59,122a1.64,1.64,0,0,1-2,0,1.74,1.74,0,0,1-.55-1.44c.87-3,1.71-6,2.58-9.06l-21.93-.21a6.28,6.28,0,0,1-2.59-.59c-3.95-1.84-4.46-7-4.5-7.49l5.91-32.39a6.72,6.72,0,0,1,1.15-3,7.8,7.8,0,0,1,6-2.93l56.85-.2a1.57,1.57,0,0,0,.45-.22,2.18,2.18,0,0,0,.79-1.11L96.43,59,6.61,58.43a7.19,7.19,0,0,1-5.14-2.7A7.4,7.4,0,0,1,.08,50.2L4.53,28.83a8.11,8.11,0,0,1,3.26-4.19,7.53,7.53,0,0,1,3.15-1.14l100.69-.2a2,2,0,0,0,.62-.26,3.7,3.7,0,0,0,1.55-2.5l.77-6.12a1.21,1.21,0,0,0-.48-.59,1.32,1.32,0,0,0-.7-.2l-42.63-.19a1.81,1.81,0,0,0-.88.45,2.11,2.11,0,0,0-.7,1.12c-.26,2-.52,4.09-.8,6.12Z"/></g></g></g></g></svg>