<svg xmlns="http://www.w3.org/2000/svg" xmlns:xlink="http://www.w3.org/1999/xlink" viewBox="0 0 204.32 123.61"><defs><style>.cls-1{fill:url(#Degradado_sin_nombre_2);}.cls-2{fill:#fff;}</style><linearGradient id="Degradado_sin_nombre_2" x1="57.62" y1="461.77" x2="159.16" y2="461.77" gradientTransform="matrix(1, 0, 0, -1, 0, 509.24)" gradientUnits="userSpaceOnUse"><stop offset="0" stop-color="#8ac9b4"/><stop offset="1" stop-color="#94cba4"/></linearGradient></defs><g id="Capa_2" data-name="Capa 2"><g id="Capa_1-2" data-name="Capa 1"><g id="Capa_2-2" data-name="Capa 2"><g id="Capa_1-2-2" data-name="Capa 1-2"><path class="cls-1" d="M98.59,16.46l2.3-12.78a4.9,4.9,0,0,1,5-3.67h47.8s6,.46,5.39,5.52S155.44,25,155.44,25s-2,4.15-4.44,4.29-78.89,0-78.89,0a.8.8,0,0,0-.62.11,1,1,0,0,0-.18.28c-1,1.71-1.7,3.41-1.1,4.07A1.18,1.18,0,0,0,71,34h67.4a5.7,5.7,0,0,1,3.75,1.22,5.89,5.89,0,0,1,2.07,4.44Q143,48,141.66,56.22a7.64,7.64,0,0,1-3.49,4.86,5.82,5.82,0,0,1-1.27.51H93.07a1.67,1.67,0,0,0-.62.2,2.39,2.39,0,0,0-1.07,1.78q-.84,4.83-1.69,9.65a1.47,1.47,0,0,0,.13,1.16,1.33,1.33,0,0,0,.64.53h10.88l1.83-7.51a1.16,1.16,0,0,1,1.5-.66A1.13,1.13,0,0,1,105,67l16.24,11.33a1.08,1.08,0,0,1,.37.8,1,1,0,0,1-.53.89L99.2,94.67a1.28,1.28,0,0,1-1.57,0,1.36,1.36,0,0,1-.43-1.12c.67-2.34,1.33-4.69,2-7l-17-.16a5.05,5.05,0,0,1-2-.46c-3.06-1.43-3.46-5.47-3.49-5.81L81.27,55a5.24,5.24,0,0,1,.89-2.31,6,6,0,0,1,4.63-2.28l44.12-.16a.91.91,0,0,0,.34-.17,1.65,1.65,0,0,0,.62-.85l.57-3.41-69.7-.43a5.61,5.61,0,0,1-4-2.1A5.76,5.76,0,0,1,57.68,39l3.45-16.58a6.28,6.28,0,0,1,2.53-3.25,5.93,5.93,0,0,1,2.44-.88l78.13-.16a1.63,1.63,0,0,0,.49-.2,2.86,2.86,0,0,0,1.2-1.94l.6-4.75a.93.93,0,0,0-.37-.46,1.13,1.13,0,0,0-.54-.16l-33.09-.14a1.46,1.46,0,0,0-.68.34,1.66,1.66,0,0,0-.54.88c-.2,1.58-.41,3.17-.62,4.74Z"/></g></g><path class="cls-2" d="M0,104.64H9.84v4.15H4.41v3.15H9.65v4.14H4.41v7H0Z"/><path class="cls-2" d="M26.12,123.13h-4v-1.5h0a4.35,4.35,0,0,1-4,2c-4.29,0-6.8-3.45-6.8-7.43,0-4.54,3.19-7.39,6.8-7.39a4.37,4.37,0,0,1,4,1.95h0v-1.48h4Zm-7.43-3.4a3.54,3.54,0,1,0-3.36-3.5A3.4,3.4,0,0,0,18.69,119.73Z"/><path class="cls-2" d="M34.57,113.16c0-.3-.07-1-1.26-1-.86,0-1.15.55-1.15.93,0,.75,1,1.17,2.07,1.49,2.29.65,4.73,1.35,4.73,4.35s-2.51,4.73-5.51,4.73c-2,0-5.14-1-5.5-4.6h4a1.44,1.44,0,0,0,1.53,1.27c.68,0,1.42-.4,1.42-1.07,0-1.08-1-1.2-3.59-2.23-1.75-.57-3.21-1.74-3.21-3.62,0-2.75,2.43-4.57,5.24-4.57,1.77,0,4.85.72,5.19,4.37Z"/><path class="cls-2" d="M45.59,109.26h1.95v3.15H45.59v10.72H41.54V112.41h-2v-3.15h2v-4.62h4.05Z"/><path class="cls-2" d="M58.67,108.79H55.11v-4.15h11.7v4.15H63.28v14.34H58.67Z"/><path class="cls-2" d="M68.22,109.26H72v1.48h0a3.32,3.32,0,0,1,3.39-1.95V113c-1.88.05-3.2.45-3.2,2.55v7.62h-4Z"/><path class="cls-2" d="M91.05,123.13H87v-1.5H87a4.34,4.34,0,0,1-3.95,2c-4.29,0-6.8-3.45-6.8-7.43,0-4.54,3.19-7.39,6.8-7.39A4.37,4.37,0,0,1,87,110.74H87v-1.48h4Zm-7.43-3.4a3.54,3.54,0,1,0-3.36-3.5A3.4,3.4,0,0,0,83.62,119.73Z"/><path class="cls-2" d="M107.42,117.86a7.49,7.49,0,1,1,0-3.25h-4.09a3,3,0,0,0-2.93-2c-1.92-.1-3.21,1.53-3.21,3.52a3.24,3.24,0,0,0,3.21,3.53,3.12,3.12,0,0,0,2.93-1.85Z"/><path class="cls-2" d="M109.54,104.64h4v9.65h0l3.75-5h4.8l-5.09,6.1,4.94,7.77h-4.58l-3.82-6.67h0v6.67h-4Z"/><path class="cls-2" d="M133.66,108.79h-3.55v-4.15H141.8v4.15h-3.53v14.34h-4.61Z"/><path class="cls-2" d="M157.44,123.13h-4v-1.5h-.05a4.33,4.33,0,0,1-3.95,2c-4.29,0-6.8-3.45-6.8-7.43,0-4.54,3.2-7.39,6.8-7.39a4.37,4.37,0,0,1,3.95,1.95h.05v-1.48h4Zm-7.43-3.4a3.54,3.54,0,1,0-3.36-3.5A3.43,3.43,0,0,0,150,119.73Z"/><path class="cls-2" d="M160.15,104.64h4v18.49h-4Z"/><path class="cls-2" d="M179.91,118.78a8.1,8.1,0,0,1-2.76,3.55,6.42,6.42,0,0,1-3.85,1.25,7.4,7.4,0,0,1-.07-14.79c4.12,0,7.14,3.35,7.14,7.57a5.72,5.72,0,0,1-.1,1.1H170.14a3,3,0,0,0,3.16,2.62,2.84,2.84,0,0,0,2.46-1.3Zm-3.58-4.12a3.18,3.18,0,0,0-6.15,0Z"/><path class="cls-2" d="M182.37,109.26h3.77v1.48h.05a3.84,3.84,0,0,1,3.68-1.95,5.73,5.73,0,0,1,3.46,1.2c.73.65,1.56,1.75,1.56,4.47v8.67h-4v-7.57c0-1,0-2.87-2.12-2.87-2.32,0-2.32,2-2.32,2.89v7.55h-4Z"/><path class="cls-2" d="M202.37,109.26h1.95v3.15h-1.95v10.72h-4V112.41h-2v-3.15h2v-4.62h4Z"/></g></g></svg>